<?xml version="1.0" encoding="utf-8"?>
<!-- Generator: Adobe Illustrator 25.2.3, SVG Export Plug-In . SVG Version: 6.00 Build 0)  -->
<svg version="1.1" id="Layer_1" xmlns="http://www.w3.org/2000/svg" xmlns:xlink="http://www.w3.org/1999/xlink" x="0px" y="0px"
	 viewBox="0 0 1440 1024" style="enable-background:new 0 0 1440 1024;" xml:space="preserve">
<style type="text/css">
	.st0{fill:#C7BA7D;}
	.st1{opacity:0.8;}
	.st2{fill:#FFFFFF;}
	.st3{fill:#145079;}
	.st4{fill:#0E3855;}
	.st5{fill:#9AD2D9;}
	.st6{fill:#C3E1DB;}
	.st7{fill:#9DB5DE;}
	.st8{fill:#748DC8;}
	.st9{fill:#8C4F94;}
	.st10{fill:#AE7AB1;}
	.st11{fill:#8D2B3E;}
	.st12{fill:#411611;}
	.st13{fill:#DA6A27;}
	.st14{fill:#F4A525;}
	.st15{fill:#B92327;}
</style>
<rect class="st0" width="1440" height="1024"/>
<g class="st1">
	<path class="st2" d="M353.97,609.3c-7.04,0-12.71,3.41-13.18,7.63c-0.08-0.01-0.13-0.02-0.18-0.03v-7.59c0-4.48-6-8.15-13.36-8.15
		c-7.33,0-13.36,3.67-13.36,8.15v-8.15c0-4.48-6-8.15-13.36-8.15c-7.33,0-13.36,3.67-13.36,8.15v-32.61c0-4.48-6-8.15-13.36-8.15
		c-7.33,0-13.36,3.67-13.36,8.15v5.21v43.71v5.89c0,0.99-1.49,1.88-3.05,2.17c-1.57,0.29-3.44-0.08-4.36-0.91
		c-9.84-7.82-9.21-15.55-23.38-15.55c-3.29,0-6.34,1.06-8.01,2.79c-1.64,1.73-1.7,3.87-0.1,5.62l41.84,54.97
		c1.17,1.29,3.42,2.09,5.84,2.09c11.69,0,52.91,0,78.03,0c11.06,0,20.04-5.47,20.04-12.23c0-21.85,0-44.84,0-44.84
		C367.32,612.97,361.32,609.3,353.97,609.3z"/>
	<g>
		<path class="st3" d="M312.34,679.31h-46.18c-4.86,0-8.8,2.41-8.8,5.37v21.44c0,2.97,3.94,5.37,8.8,5.37h46.18v-7.32V679.31z"/>
		<path class="st4" d="M358.52,679.31h-46.18v24.87v7.32h46.18c4.86,0,8.8-2.41,8.8-5.37v-21.44
			C367.32,681.71,363.38,679.31,358.52,679.31z"/>
	</g>
	<g>
		<path class="st5" d="M365.17,691.01h-53.42v338.27h53.42c4.72,0,8.55-1.61,8.55-3.6V694.61
			C373.72,692.62,369.89,691.01,365.17,691.01z"/>
		<path class="st6" d="M258.34,691.01c-4.72,0-8.55,1.61-8.55,3.6v331.07c0,1.99,3.83,3.6,8.55,3.6h53.41V691.01H258.34z"/>
	</g>
	<ellipse class="st3" cx="358.78" cy="708.53" rx="8.55" ry="5.22"/>
	<ellipse class="st3" cx="358.78" cy="736.85" rx="8.55" ry="5.22"/>
	<ellipse class="st3" cx="358.78" cy="722.69" rx="8.55" ry="5.22"/>
</g>
<g class="st1">
	<g>
		<path class="st7" d="M484.34,554.69h-46.18c-4.86,0-8.8,2.41-8.8,5.37v21.44c0,2.97,3.94,5.37,8.8,5.37h46.18v-7.32V554.69z"/>
		<path class="st8" d="M530.51,554.69h-46.18v24.87v7.32h46.18c4.86,0,8.8-2.41,8.8-5.37v-21.44
			C539.32,557.09,535.37,554.69,530.51,554.69z"/>
	</g>
	<g>
		<path class="st9" d="M537.16,566.39h-53.41v462.89h53.41c4.72,0,8.55-1.61,8.55-3.6V569.99
			C545.71,568,541.88,566.39,537.16,566.39z"/>
		<path class="st10" d="M430.33,566.39c-4.72,0-8.55,1.61-8.55,3.6v455.69c0,1.99,3.83,3.6,8.55,3.6h53.41V566.39H430.33z"/>
	</g>
	<path class="st3" d="M539.32,583.92c0,2.88-3.83,5.22-8.55,5.22c-4.72,0-8.55-2.34-8.55-5.22c0-2.88,3.83-5.22,8.55-5.22
		C535.49,578.7,539.32,581.03,539.32,583.92z"/>
	<path class="st3" d="M539.32,612.23c0,2.88-3.83,5.22-8.55,5.22c-4.72,0-8.55-2.33-8.55-5.22c0-2.88,3.83-5.22,8.55-5.22
		C535.49,607.02,539.32,609.35,539.32,612.23z"/>
	<ellipse class="st3" cx="530.77" cy="598.07" rx="8.55" ry="5.22"/>
	<path class="st2" d="M444.65,550.33h84.81c0,0,31.87-52.42,41.65-68.5c9.84-16.18-14.39-19.87-23.47-4.62
		c-6.53,10.99-11.36,12.48-11.36,12.48s-9.99-0.01-8.33-6.47c2.27-8.78,5.3-19.41,9.84-35.59c2.82-10.03-23.47-11.55-25.74-3.24
		c-2.27,8.32-7.57,30.5-9.09,35.59c-1.51,5.08-11.14,9.24-12.12-3.23c-0.64-8.37-1.51-20.61-1.51-36.97
		c0-11.09-28.77-9.71-28.77,0.46c0,7.11,0.92,36.04,0.76,41.59c-0.17,5.55-4.19,7.3-9.84-0.46c-6.06-8.32-12.5-18.17-18.17-26.34
		c-8.33-12.02-30.9-3.78-25.75,4.62c4.52,7.34,15.43,23.57,24.23,36.05c4.52,6.38,10.22,19.06-3.79,12.48
		c-9.84-4.62-13.63-9.24-24.99-13.86c-11.36-4.62-22.81,5.32-18.41,8.63c9.84,7.39,27.16,19.03,38.36,30.19
		C431.28,541.45,444.65,550.33,444.65,550.33z"/>
</g>
<g class="st1">
	<g>
		<path class="st11" d="M672.05,419.48h-46.18c-4.86,0-8.8,2.41-8.8,5.37v21.44c0,2.97,3.94,5.37,8.8,5.37h46.18v-7.32V419.48z"/>
		<path class="st12" d="M718.23,419.48h-46.18v24.87v7.32h46.18c4.86,0,8.8-2.41,8.8-5.37v-21.44
			C727.03,421.89,723.09,419.48,718.23,419.48z"/>
	</g>
	<g>
		<path class="st13" d="M724.88,431.18h-53.42v598.09h53.42c4.72,0,8.55-1.61,8.55-3.6v-590.9
			C733.42,432.79,729.6,431.18,724.88,431.18z"/>
		<path class="st14" d="M618.05,431.18c-4.72,0-8.55,1.61-8.55,3.6v590.9c0,1.99,3.83,3.6,8.55,3.6h53.41V431.18H618.05z"/>
	</g>
	<path class="st15" d="M727.03,448.71c0,2.88-3.83,5.22-8.55,5.22c-4.72,0-8.55-2.34-8.55-5.22c0-2.88,3.83-5.22,8.55-5.22
		C723.2,443.49,727.03,445.83,727.03,448.71z"/>
	<ellipse class="st15" cx="718.48" cy="477.02" rx="8.55" ry="5.22"/>
	<path class="st15" d="M727.03,462.87c0,2.88-3.83,5.22-8.55,5.22c-4.72,0-8.55-2.33-8.55-5.22c0-2.88,3.83-5.22,8.55-5.22
		C723.2,457.65,727.03,459.99,727.03,462.87z"/>
	<path class="st2" d="M742.6,308.47c-1.87-9.42-29.94-6.14-27.36,2.85c1.4,9.28,6.55,19.7-4.91,27.41c0-11.13,9.59-24.26-3.97-33.83
		c-8.65-6.14-15.9-13.13-25.49-18.56c-7.17-1.94-15.76,0.85-20.02,4.9c-3.25,3.09-3.98,6.92,0.37,9.94
		c4.91,3.92,10.06,7.7,15.1,11.49c0.69,0.52,1.37,1.04,2.06,1.56c1.23,0.93,2.45,1.86,3.66,2.79c-0.3,1.35-0.59,2.69-0.88,4.03
		c-0.16,0.74-0.32,1.48-0.47,2.21c-0.45,2.14-0.87,4.29-1.22,6.47c-6.08-7.71-5.61-18.27-17.07-23.84
		c-3.63-0.22-7.26-0.35-10.89-0.4c-0.47-0.01-0.93-0.02-1.4-0.02c-10.02-0.11-20.04,0.26-30.05,0.38c-2.02,0.03-4.04,0.04-6.07,0.04
		c-18.01-0.71-16.61,18.84,0,19.13c4.53,0.07,9.05,0.01,13.6-0.06c5.09-0.07,10.21-0.16,15.4-0.08c1.64,3.14,3.28,6.28,4.91,9.42
		c-6.04-3.18-11.52-9.62-20.24-9.19c-1.08,0.05-2.2,0.2-3.38,0.49c-14.03,5-26.66,11.56-39.99,17.41
		c-6.33,2.55-5.99,6.91-2.49,10.37c3.73,3.7,11.05,6.38,17.69,4.76c8.65-2.85,16.37-6.57,24.56-9.85
		c10.06,6.99,19.41,14.56,24.32,23.27c0.24,1.66-0.15,3.18-1.01,4.54c-4.21,6.73-19.98,9.51-30.1,4.88
		c-11.42-1.77-10.48-9.11-14.16-14.52c-1.07-1.57-2.52-2.98-4.79-4.04c-7.6-3-17.27-0.9-21.67,3.15c-2.51,2.31-3.31,5.26-1.02,8.26
		c0.18,1.71,0.59,3.35,1.18,4.94c1.13,3.05,2.96,5.89,5.33,8.54c8.94,10.04,25.49,17.52,40.5,24.34c0.89,0.31,1.8,0.62,2.72,0.91
		c0.42,0.25,0.85,0.5,1.27,0.75l1.47,1.94c0.95,1.05,2.7,1.73,4.64,1.85c0.19,0.01,0.39,0.02,0.58,0.02c2.43,0,6.29,0,11.07,0
		c0.77,0,1.57,0,2.39,0c8.3,0,18.83,0,29.33,0c0.21,0,0.41,0,0.62,0c3.78,0,7.55,0,11.19,0c5.19,0,10.14,0,14.53,0
		c6.41,0,12.03-2.06,15.2-5.15c1.21-2.21,2.08-4.52,2.71-6.86c0.97-3.6,1.41-7.26,1.73-10.73c0-0.96,0.02-1.93,0.05-2.9
		c6.34-15.47,3.97-32.61,16.72-47.21C750.55,333.45,744.01,320.46,742.6,308.47z"/>
</g>
<g class="st1">
	<g>
		<path class="st6" d="M854.6,679.31h-46.18c-4.86,0-8.8,2.41-8.8,5.37v21.44c0,2.97,3.94,5.37,8.8,5.37h46.18v-7.32V679.31z"/>
		<path class="st5" d="M900.78,679.31H854.6v24.87v7.32h46.18c4.86,0,8.8-2.41,8.8-5.37v-21.44
			C909.58,681.71,905.64,679.31,900.78,679.31z"/>
	</g>
	<g>
		<path class="st4" d="M907.43,691.01h-53.42v338.27h53.42c4.72,0,8.55-1.61,8.55-3.6V694.61
			C915.98,692.62,912.15,691.01,907.43,691.01z"/>
		<path class="st3" d="M800.6,691.01c-4.72,0-8.55,1.61-8.55,3.6v331.07c0,1.99,3.83,3.6,8.55,3.6h53.41V691.01H800.6z"/>
	</g>
	<ellipse class="st6" cx="901.04" cy="708.53" rx="8.55" ry="5.22"/>
	<ellipse class="st6" cx="901.04" cy="736.85" rx="8.55" ry="5.22"/>
	<ellipse class="st6" cx="901.04" cy="722.69" rx="8.55" ry="5.22"/>
	<path class="st2" d="M899.85,611.54c-7.01,0-12.65,3.39-13.11,7.59c-0.08-0.01-0.13-0.02-0.18-0.03v-7.56
		c0-4.46-5.97-8.11-13.3-8.11c-7.3,0-13.3,3.65-13.3,8.11v-4.89c0.53-3.8,0.97-8.54,0.85-7.24l2.92-32.41
		c0.4-4.46-5.24-8.3-12.55-8.55c-7.28-0.24-13.6,3.2-14,7.66l-3.13,34.77c-0.03,0.06-0.07,0.12-0.1,0.18
		c0.03-0.01,0.06-0.01,0.08-0.01l-0.06,0.62c-0.11,0.04-0.22,0.07-0.33,0.11c-0.18,0.53-0.28,1.09-0.28,1.65v-1.57
		c-0.42,0.13-0.85,0.25-1.28,0.36l-2.92-32.42c-0.4-4.45-6.72-7.9-14-7.66c-7.31,0.25-12.95,4.09-12.55,8.55l2.92,32.41
		c-0.14-1.57,0.54,5.77,1.2,9.5c0.02,0.09,0.03,0.19,0.04,0.28v12.63c0,0.99-1.48,1.87-3.04,2.16c-1.56,0.29-3.43-0.08-4.34-0.91
		c-9.79-7.79-9.17-15.48-23.27-15.48c-3.27,0-6.31,1.05-7.97,2.77c-1.64,1.72-1.69,3.85-0.1,5.6l41.65,54.72
		c1.17,1.28,3.4,2.08,5.82,2.08h77.67c11.01,0,19.94-5.44,19.94-12.17c0-21.75,0-44.63,0-44.63
		C913.15,615.19,907.17,611.54,899.85,611.54z"/>
</g>
<g class="st1">
	<path class="st2" d="M1062.74,483.7c1.5-2.87,2.96-5.73,1.81-8.73c-3.43-4.29-13.08-6.68-20.72-5.44c-2.47,0.4-4.73,1.18-6.5,2.39
		c-0.54,0.78-0.98,1.57-1.37,2.37c-0.7-1.03-1.39-2.06-2.04-3.11c1.05-4.55,2.19-9.11,3.35-13.67c2.07-8.14,4.16-16.29,5.73-24.5
		c1.36-9.14-26.31-11.63-29.49-2.63c-0.4,1.51-0.78,3.02-1.17,4.54c-2.1,8.24-4.02,16.5-5.97,24.76c-0.18,0.75-0.35,1.49-0.53,2.24
		c-1.79,7.54-3.63,15.08-5.72,22.6c-5.22-17.17-4.76-34.89-9.07-52.19c-0.68-0.92-1.64-1.68-2.79-2.3
		c-8.73-4.74-28.6-1.18-25.79,7.15c1.28,12.55,2.93,25.11,4.42,37.63c0.83,6.95,1.61,13.89,2.26,20.81
		c0.04,0.41,0.08,0.82,0.12,1.23c-2.89,5.19-10.12,9.76-12.89,15.11c-0.92,1.78-1.35,3.65-0.95,5.66
		c2.55,10.66,9.02,21.94,22.03,29.54c0.27,0.16,0.54,0.31,0.82,0.47l1.7,2.26c0.89,0.97,2.51,1.61,4.3,1.71
		c0.18,0.01,0.36,0.02,0.54,0.02c0.68,0,1.48,0,2.38,0c2.59,0,6.06,0,10.1,0c7.69,0,17.46,0,27.2,0c0.19,0,0.38,0,0.57,0
		c8.5,0,16.92,0,23.85,0c0.03,0,0.06,0,0.09,0c5.91-0.02,11.08-1.92,14-4.77c1.12-2.05,1.93-4.19,2.51-6.36
		c0.15-0.55,0.28-1.09,0.4-1.64c14.1-14.64,18.85-32.5,24.46-49.06C1092.23,480.14,1069.28,475.92,1062.74,483.7z M1030.98,486.18
		c0.68-4.45,1.57-8.89,2.56-13.34c0.6,0.88,1.23,1.76,1.89,2.62C1033.95,479.04,1033.35,482.77,1030.98,486.18z"/>
	<g>
		<path class="st10" d="M1021.58,554.69H975.4c-4.86,0-8.8,2.41-8.8,5.37v21.44c0,2.97,3.94,5.37,8.8,5.37h46.18v-7.32V554.69z"/>
		<path class="st9" d="M1067.76,554.69h-46.18v24.87v7.32h46.18c4.86,0,8.8-2.41,8.8-5.37v-21.44
			C1076.56,557.09,1072.62,554.69,1067.76,554.69z"/>
	</g>
	<g>
		<path class="st8" d="M1074.41,566.39h-53.42v462.89h53.42c4.72,0,8.55-1.61,8.55-3.6V569.99
			C1082.95,568,1079.13,566.39,1074.41,566.39z"/>
		<path class="st7" d="M967.58,566.39c-4.72,0-8.55,1.61-8.55,3.6v455.69c0,1.99,3.83,3.6,8.55,3.6h53.41V566.39H967.58z"/>
	</g>
	<path class="st9" d="M1076.56,583.92c0,2.88-3.83,5.22-8.55,5.22c-4.72,0-8.55-2.34-8.55-5.22c0-2.88,3.83-5.22,8.55-5.22
		C1072.73,578.7,1076.56,581.03,1076.56,583.92z"/>
	<path class="st9" d="M1076.56,612.23c0,2.88-3.83,5.22-8.55,5.22c-4.72,0-8.55-2.33-8.55-5.22c0-2.88,3.83-5.22,8.55-5.22
		C1072.73,607.02,1076.56,609.35,1076.56,612.23z"/>
	<ellipse class="st9" cx="1068.01" cy="598.07" rx="8.55" ry="5.22"/>
</g>
<g class="st1">
	<g>
		<path class="st2" d="M1225.99,601.81c2.18-0.13,4.13-0.9,5.2-2.07l1.65-2.17c15.46-9.22,32.82-17.24,52.22-23.06
			c13.51-3.4,3.86-18.19-9.65-15.84c-5.57,1.26-11,2.75-16.32,4.41c-9.63,3.01-18.88,6.58-27.86,10.38
			c-0.21-26.57-0.64-53.14-1.5-79.58c0-4-5.91-6.19-11.77-6.28c-5.25-0.08-10.47,1.51-11.38,4.97c-0.64,10.68-0.52,21.41-0.59,32.13
			c-0.05,7.14-0.18,14.28-0.7,21.4c-0.42-7.61-0.63-15.21-0.75-22.82c-0.18-12.03-0.1-24.05-0.1-36.08
			c0.43-9.03-27.88-8.9-27.24,0.13c-0.16,14.59,0.16,29.17,0.15,43.81c0,5.06-0.04,10.14-0.15,15.22
			c-1.81-5.32-0.85-10.73-1.27-16.08c-0.13-1.62-0.38-3.24-0.88-4.86c-4.71-5.76-21.66-5.5-25.94,0.52
			c-0.86,4.11-0.57,8.27-0.22,12.42c0.17,2.06,0.36,4.12,0.43,6.17c-0.43,0-1.29,0-1.5,0c-0.27-2.28-0.2-4.61-0.58-6.9
			c-0.23-1.39-0.62-2.76-1.35-4.1c-5.15-4.45-18.87-3.93-22.94,1.05c-0.86,13.87,2.14,27.88,2.14,41.75c0.36,3.89,0.85,8,1.94,12.03
			c0.71,2.62,1.68,5.22,3.04,7.69c3.55,3.47,9.85,5.77,17.04,5.77c25.18,0,66.5,0,78.22,0
			C1225.56,601.84,1225.78,601.82,1225.99,601.81z"/>
	</g>
	<g>
		<path class="st3" d="M1179.69,607.02h-46.18c-4.86,0-8.8,2.41-8.8,5.37v21.44c0,2.97,3.94,5.37,8.8,5.37h46.18v-7.32V607.02z"/>
		<path class="st4" d="M1225.87,607.02h-46.18v24.87v7.32h46.18c4.86,0,8.8-2.41,8.8-5.37v-21.44
			C1234.67,609.42,1230.73,607.02,1225.87,607.02z"/>
	</g>
	<g>
		<path class="st5" d="M1232.52,618.72h-53.42v410.56h53.42c4.72,0,8.55-1.61,8.55-3.6V622.32
			C1241.07,620.33,1237.24,618.72,1232.52,618.72z"/>
		<path class="st6" d="M1125.69,618.72c-4.72,0-8.55,1.61-8.55,3.6v403.36c0,1.99,3.83,3.6,8.55,3.6h53.41V618.72H1125.69z"/>
	</g>
	<ellipse class="st3" cx="1226.13" cy="636.24" rx="8.55" ry="5.22"/>
	<ellipse class="st3" cx="1226.13" cy="664.56" rx="8.55" ry="5.22"/>
	<path class="st3" d="M1234.67,650.4c0,2.88-3.83,5.22-8.55,5.22c-4.72,0-8.55-2.33-8.55-5.22c0-2.88,3.83-5.22,8.55-5.22
		C1230.85,645.19,1234.67,647.52,1234.67,650.4z"/>
</g>
</svg>
